<svg width="76" height="24" viewBox="0 0 76 24" fill="none" xmlns="http://www.w3.org/2000/svg">
<path d="M30.224 17.96V5.36H35.282C36.59 5.36 37.586 5.666 38.27 6.278C38.966 6.878 39.314 7.652 39.314 8.6C39.314 9.392 39.098 10.028 38.666 10.508C38.246 10.976 37.73 11.294 37.118 11.462C37.838 11.606 38.432 11.966 38.9 12.542C39.368 13.106 39.602 13.766 39.602 14.522C39.602 15.518 39.242 16.34 38.522 16.988C37.802 17.636 36.782 17.96 35.462 17.96H30.224ZM32.528 10.652H34.94C35.588 10.652 36.086 10.502 36.434 10.202C36.782 9.902 36.956 9.476 36.956 8.924C36.956 8.396 36.782 7.982 36.434 7.682C36.098 7.37 35.588 7.214 34.904 7.214H32.528V10.652ZM32.528 16.088H35.102C35.786 16.088 36.314 15.932 36.686 15.62C37.07 15.296 37.262 14.846 37.262 14.27C37.262 13.682 37.064 13.22 36.668 12.884C36.272 12.548 35.738 12.38 35.066 12.38H32.528V16.088Z" fill="white"/>
<path d="M41.1655 17.96V5H43.4695V17.96H41.1655Z" fill="white"/>
<path d="M49.7477 18.176C48.8837 18.176 48.1037 17.978 47.4077 17.582C46.7237 17.186 46.1777 16.64 45.7697 15.944C45.3737 15.236 45.1757 14.42 45.1757 13.496C45.1757 12.572 45.3797 11.762 45.7877 11.066C46.1957 10.358 46.7417 9.806 47.4257 9.41C48.1217 9.014 48.9017 8.816 49.7657 8.816C50.6177 8.816 51.3857 9.014 52.0697 9.41C52.7657 9.806 53.3117 10.358 53.7077 11.066C54.1157 11.762 54.3197 12.572 54.3197 13.496C54.3197 14.42 54.1157 15.236 53.7077 15.944C53.3117 16.64 52.7657 17.186 52.0697 17.582C51.3737 17.978 50.5997 18.176 49.7477 18.176ZM49.7477 16.178C50.3477 16.178 50.8697 15.956 51.3137 15.512C51.7577 15.056 51.9797 14.384 51.9797 13.496C51.9797 12.608 51.7577 11.942 51.3137 11.498C50.8697 11.042 50.3537 10.814 49.7657 10.814C49.1537 10.814 48.6257 11.042 48.1817 11.498C47.7497 11.942 47.5337 12.608 47.5337 13.496C47.5337 14.384 47.7497 15.056 48.1817 15.512C48.6257 15.956 49.1477 16.178 49.7477 16.178Z" fill="white"/>
<path d="M60.3937 18.176C59.4817 18.176 58.6777 17.978 57.9817 17.582C57.2857 17.186 56.7337 16.634 56.3257 15.926C55.9297 15.218 55.7317 14.408 55.7317 13.496C55.7317 12.584 55.9297 11.774 56.3257 11.066C56.7337 10.358 57.2857 9.806 57.9817 9.41C58.6777 9.014 59.4817 8.816 60.3937 8.816C61.5337 8.816 62.4937 9.116 63.2737 9.716C64.0537 10.304 64.5517 11.12 64.7677 12.164H62.3377C62.2177 11.732 61.9777 11.396 61.6177 11.156C61.2697 10.904 60.8557 10.778 60.3757 10.778C59.7397 10.778 59.1997 11.018 58.7557 11.498C58.3117 11.978 58.0897 12.644 58.0897 13.496C58.0897 14.348 58.3117 15.014 58.7557 15.494C59.1997 15.974 59.7397 16.214 60.3757 16.214C60.8557 16.214 61.2697 16.094 61.6177 15.854C61.9777 15.614 62.2177 15.272 62.3377 14.828H64.7677C64.5517 15.836 64.0537 16.646 63.2737 17.258C62.4937 17.87 61.5337 18.176 60.3937 18.176Z" fill="white"/>
<path d="M66.4527 17.96V5H68.7567V12.65L71.9247 9.032H74.6607L71.0067 13.1L75.2547 17.96H72.3747L68.7567 13.478V17.96H66.4527Z" fill="white"/>
<rect width="9" height="24" rx="2" fill="white"/>
<rect x="11" y="11" width="10" height="13" rx="2" fill="white"/>
</svg>
