<svg width="24" height="24" viewBox="0 0 24 24" fill="none" xmlns="http://www.w3.org/2000/svg">
<path fill-rule="evenodd" clip-rule="evenodd" d="M12 24C18.6274 24 24 18.6274 24 12C24 5.37258 18.6274 0 12 0C5.37258 0 0 5.37258 0 12C0 18.6274 5.37258 24 12 24ZM16.7038 9.13356C17.1603 9.08018 17.5953 8.96174 18 8.78588C17.6975 9.22867 17.3148 9.61763 16.8739 9.92942C17.0169 13.0362 14.6496 16.5 10.4595 16.5C9.18533 16.5 7.99871 16.1344 7 15.5076C8.19717 15.6458 9.3925 15.3206 10.3413 14.5924C9.35308 14.5745 8.51983 13.9361 8.23292 13.0586C8.58675 13.125 8.93462 13.1052 9.25225 13.0209C8.16692 12.8078 7.41754 11.8504 7.44229 10.8271C7.74617 10.9927 8.0945 11.0918 8.46392 11.1035C7.45925 10.4458 7.17462 9.14702 7.76587 8.15421C8.87917 9.49067 10.542 10.37 12.417 10.4619C12.088 9.08062 13.1586 7.75 14.6157 7.75C15.2647 7.75 15.8518 8.01828 16.2629 8.44761C16.7772 8.34847 17.2603 8.16453 17.6961 7.91151C17.5279 8.42743 17.17 8.86035 16.7038 9.13356Z" fill="white"/>
</svg>
